<svg width="32" height="32" viewBox="0 0 32 32" fill="none" xmlns="http://www.w3.org/2000/svg">
<g clip-path="url(#clip0_1005_76)">
<rect x="13.7719" y="20.5131" width="4.17541" height="6.26312" fill="#BF0A30"/>
<path d="M12.695 21.322C13.4187 20.57 14.1475 20.185 14.8814 20.1671C14.4634 20.5904 14.183 21.0161 14.0405 21.4441C13.8979 21.8721 13.8351 22.434 13.8521 23.1297C13.8599 23.4508 14.0069 23.9119 14.2931 24.5131C14.5793 25.1143 14.8657 25.6447 15.1523 26.1043C15.4389 26.564 15.5819 26.7823 15.5813 26.7594C15.5947 26.6826 15.6134 26.5827 15.6371 26.4597C15.6609 26.3367 15.724 26.1019 15.8265 25.7551C15.929 25.4084 16.0454 25.0843 16.1757 24.7828C16.3061 24.4813 16.4915 24.1631 16.732 23.8283C16.9724 23.4935 17.2357 23.2309 17.5217 23.0403C17.755 22.8816 17.8749 22.6244 17.8816 22.2685C17.8882 21.9126 17.8143 21.5472 17.6598 21.1723C17.5053 20.7974 17.3131 20.4445 17.0832 20.1135C17.4961 20.1035 18.1796 20.5305 19.1339 21.3946C19.4545 21.6775 19.6937 22.0006 19.8518 22.3639C20.0098 22.7273 20.0923 23.0542 20.0994 23.3447C20.1113 23.834 19.9881 24.3476 19.7296 24.8855C19.4711 25.4235 19.1175 25.9006 18.6687 26.317C18.2873 26.6782 17.981 27.0567 17.7497 27.4524C17.5183 27.8482 17.3725 28.2208 17.3122 28.5704C17.2519 28.9199 17.2315 29.2627 17.2512 29.5988C17.2708 29.9349 17.3298 30.2357 17.4281 30.501C17.5263 30.7663 17.6238 31.0011 17.7206 31.2053C17.8174 31.4095 17.9053 31.5641 17.9843 31.6693L18.1032 31.8385C18.0029 31.8027 17.8696 31.7486 17.7034 31.6762C17.5372 31.6037 17.2158 31.4432 16.7393 31.1948C16.2628 30.9463 15.8108 30.6857 15.3835 30.4131C14.9561 30.1405 14.4885 29.7866 13.9807 29.3515C13.4728 28.9163 13.0527 28.4695 12.7202 28.011C12.2612 27.3796 11.9059 26.6902 11.6544 25.9428C11.4028 25.1955 11.2813 24.5234 11.2897 23.9265C11.2975 23.6203 11.4 23.2736 11.5971 22.8863C11.7942 22.499 11.9855 22.1864 12.171 21.9486C12.3564 21.7108 12.5311 21.5019 12.695 21.322Z" fill="#CE5C17"/>
</g>
<path d="M17.381 18.8543V22.5348H14.4366V20.3265H13.7005C13.1148 20.3265 12.5531 20.0938 12.139 19.6797C11.7248 19.2656 11.4922 18.7039 11.4922 18.1182V15.9099C11.4922 15.7146 11.5697 15.5274 11.7078 15.3893C11.8458 15.2513 12.033 15.1737 12.2283 15.1737C12.4235 15.1737 12.6107 15.2513 12.7488 15.3893C12.8868 15.5274 12.9644 15.7146 12.9644 15.9099V18.1182C12.9644 18.5304 13.2956 18.8543 13.7005 18.8543H14.4366V11.4932C14.4366 11.1028 14.5917 10.7283 14.8678 10.4522C15.1439 10.1761 15.5184 10.021 15.9088 10.021C16.2993 10.021 16.6737 10.1761 16.9498 10.4522C17.2259 10.7283 17.381 11.1028 17.381 11.4932V17.3821H18.1171C18.3124 17.3821 18.4996 17.3045 18.6376 17.1665C18.7757 17.0284 18.8532 16.8412 18.8532 16.646V15.1737C18.8532 14.9785 18.9308 14.7913 19.0688 14.6532C19.2069 14.5152 19.3941 14.4376 19.5893 14.4376C19.7846 14.4376 19.9718 14.5152 20.1098 14.6532C20.2479 14.7913 20.3254 14.9785 20.3254 15.1737V16.646C20.3254 17.2316 20.0928 17.7933 19.6786 18.2075C19.2645 18.6216 18.7028 18.8543 18.1171 18.8543H17.381Z" fill="#FED700"/>
<rect x="16.199" y="5.76965" width="4.1046" height="2.9824" fill="#BF0A30"/>
<path d="M18.0379 8.30879C18.0915 8.30879 18.1433 8.30015 18.1899 8.28288L18.1139 8.81319H17.6596L17.9274 8.2967C17.9636 8.30533 17.9999 8.30879 18.0379 8.30879ZM10.7656 3.2786C10.9832 3.2786 11.194 3.30451 11.3961 3.35115C11.7657 2.68783 12.4722 2.24044 13.2841 2.24044C13.4033 2.24044 13.519 2.2508 13.6331 2.26807C14.2446 0.931068 15.5919 0.00345501 17.1552 0.00345501C19.0951 0.00345501 20.7016 1.43029 20.9831 3.29242C22.3841 3.42889 23.4775 4.6087 23.4775 6.0459C23.4775 7.57292 22.2407 8.81146 20.7137 8.81319H19.85L19.622 8.33643C20.0745 8.19305 20.3699 7.83548 20.2974 7.49346C20.2179 7.12034 19.7308 6.90787 19.2074 7.01842C18.8118 7.10306 18.5095 7.34836 18.4214 7.62474C18.3812 7.55955 18.3251 7.50568 18.2583 7.4682C18.1915 7.43072 18.1162 7.41088 18.0397 7.41054H18.0362C18.05 7.35526 18.0569 7.29826 18.0569 7.23953C18.0569 6.89232 17.8013 6.60557 17.4679 6.55548V6.11672C17.4679 6.04071 17.4057 5.97853 17.3297 5.97853C17.2537 5.97853 17.1915 6.04071 17.1915 6.11672V6.57103C17.112 6.59175 17.0395 6.6263 16.9738 6.67122L16.637 6.30155C16.5852 6.24455 16.4988 6.24109 16.4418 6.29291C16.3848 6.34474 16.3814 6.43111 16.4332 6.48811L16.7787 6.86814L16.7821 6.87159C16.7054 6.99267 16.6682 7.13461 16.6757 7.27775C16.6833 7.42089 16.7351 7.55815 16.8242 7.6705C16.9132 7.78286 17.0349 7.86475 17.1725 7.90483C17.3102 7.94491 17.4568 7.9412 17.5923 7.89421C17.5992 7.99095 17.6372 8.07904 17.6959 8.14987L17.3504 8.81319H10.6947V8.81146C9.20055 8.77346 8.00001 7.55046 8.00001 6.0459C8.00001 4.51715 9.23855 3.2786 10.7656 3.2786ZM18.741 8.29497L18.8153 8.81319H18.3938L18.4957 8.09632C18.5561 8.17578 18.6391 8.24315 18.741 8.29497ZM10.807 0.829151C10.807 1.04906 10.7197 1.25995 10.5642 1.41545C10.4087 1.57095 10.1978 1.6583 9.97788 1.6583C9.75797 1.6583 9.54708 1.57095 9.39158 1.41545C9.23609 1.25995 9.14873 1.04906 9.14873 0.829151C9.14873 0.609247 9.23609 0.398349 9.39158 0.242853C9.54708 0.0873567 9.75797 0 9.97788 0C10.1978 0 10.4087 0.0873567 10.5642 0.242853C10.7197 0.398349 10.807 0.609247 10.807 0.829151ZM11.9419 1.88805C11.9419 1.94249 11.9312 1.9964 11.9104 2.0467C11.8895 2.097 11.859 2.1427 11.8205 2.1812C11.782 2.21969 11.7363 2.25023 11.686 2.27106C11.6357 2.2919 11.5818 2.30262 11.5274 2.30262C11.4729 2.30262 11.419 2.2919 11.3687 2.27106C11.3184 2.25023 11.2727 2.21969 11.2342 2.1812C11.1957 2.1427 11.1652 2.097 11.1443 2.0467C11.1235 1.9964 11.1128 1.94249 11.1128 1.88805C11.1128 1.8336 11.1235 1.77969 11.1443 1.7294C11.1652 1.6791 11.1957 1.63339 11.2342 1.5949C11.2727 1.5564 11.3184 1.52586 11.3687 1.50503C11.419 1.48419 11.4729 1.47347 11.5274 1.47347C11.5818 1.47347 11.6357 1.48419 11.686 1.50503C11.7363 1.52586 11.782 1.5564 11.8205 1.5949C11.859 1.63339 11.8895 1.6791 11.9104 1.7294C11.9312 1.77969 11.9419 1.8336 11.9419 1.88805ZM19.3421 8.39343L19.5425 8.81319H19.0934L19.0329 8.38652C19.1314 8.40034 19.235 8.4038 19.3421 8.39343Z" fill="#002868"/>
<defs>
<clipPath id="clip0_1005_76">
<rect width="8.83328" height="11.7464" fill="white" transform="translate(20.3052 31.7849) rotate(178.605)"/>
</clipPath>
</defs>
</svg>
